<svg xmlns="http://www.w3.org/2000/svg" viewBox="0 0 120 120" width="120" height="120">
  <defs>
    <linearGradient id="trunkGrad" x1="0" y1="0" x2="0" y2="1">
      <stop offset="0%" stop-color="#2F6B58"/>
      <stop offset="100%" stop-color="#123C32"/>
    </linearGradient>
    <linearGradient id="leafGrad" x1="0" y1="0" x2="0" y2="1">
      <stop offset="0%" stop-color="#3F8062"/>
      <stop offset="100%" stop-color="#2F6B58"/>
    </linearGradient>
  </defs>
  <!-- Trunk -->
  <path d="M56 95 Q58 70 55 60 Q52 50 60 40 L60 40 Q68 50 65 60 Q62 70 64 95 Z" fill="url(#trunkGrad)"/>
  <!-- Roots -->
  <path d="M56 95 Q45 100 38 98" stroke="#123C32" stroke-width="2.5" fill="none" stroke-linecap="round"/>
  <path d="M64 95 Q75 100 82 98" stroke="#123C32" stroke-width="2.5" fill="none" stroke-linecap="round"/>
  <path d="M58 93 Q50 98 44 102" stroke="#123C32" stroke-width="2" fill="none" stroke-linecap="round" opacity="0.6"/>
  <path d="M62 93 Q70 98 76 102" stroke="#123C32" stroke-width="2" fill="none" stroke-linecap="round" opacity="0.6"/>
  <!-- Canopy layers -->
  <ellipse cx="60" cy="35" rx="28" ry="22" fill="url(#leafGrad)" opacity="0.9"/>
  <ellipse cx="48" cy="30" rx="18" ry="16" fill="#3F8062" opacity="0.7"/>
  <ellipse cx="72" cy="30" rx="18" ry="16" fill="#3F8062" opacity="0.7"/>
  <ellipse cx="60" cy="22" rx="20" ry="14" fill="#4A9A72" opacity="0.5"/>
  <!-- Leaf highlights -->
  <circle cx="50" cy="25" r="3" fill="#5AB87E" opacity="0.4"/>
  <circle cx="68" cy="20" r="2.5" fill="#5AB87E" opacity="0.4"/>
  <circle cx="58" cy="18" r="2" fill="#6BC98E" opacity="0.3"/>
</svg>
